<?xml version="1.0" standalone="no"?>
<!DOCTYPE svg PUBLIC "-//W3C//DTD SVG 20010904//EN"
 "http://www.w3.org/TR/2001/REC-SVG-20010904/DTD/svg10.dtd">
<svg version="1.0" xmlns="http://www.w3.org/2000/svg"
 width="4976.000000pt" height="4976.000000pt" viewBox="0 0 4976.000000 4976.000000"
 preserveAspectRatio="xMidYMid meet">
<metadata>
Created by potrace 1.14, written by Peter Selinger 2001-2017
</metadata>
<g transform="translate(0.000000,4976.000000) scale(0.100000,-0.100000)"
fill="#000000" stroke="none">
<path d="M17885 42253 c-16 -2 -70 -13 -120 -24 -270 -64 -505 -251 -632 -504
-38 -75 -79 -203 -90 -281 -15 -112 -8 -311 17 -433 l22 -114 -1072 -1072
-1072 -1072 -36 12 c-21 7 -57 16 -82 19 -25 3 -56 9 -70 12 -51 12 -281 11
-357 -1 -321 -52 -587 -253 -723 -549 -58 -126 -82 -238 -84 -391 0 -71 2
-157 7 -190 16 -135 76 -295 153 -411 71 -108 216 -238 326 -293 14 -7 45 -33
69 -57 l42 -43 -1 -6228 c0 -3425 -1 -6236 -1 -6246 -1 -18 -5 -18 -61 1 -8 3
2 -13 24 -36 l38 -40 1 -280 0 -279 106 -1 106 -2 235 -239 c129 -132 425
-432 656 -668 232 -235 492 -500 579 -588 86 -88 347 -353 579 -588 628 -640
636 -648 632 -655 -15 -25 -38 -187 -41 -292 -9 -316 83 -563 281 -757 102
-99 205 -166 290 -188 38 -9 98 -25 134 -36 89 -25 128 -30 250 -34 231 -7
435 47 606 161 55 36 194 169 194 185 0 4 6 14 14 22 21 20 101 174 121 232
14 40 26 56 60 77 52 32 105 102 131 172 27 74 25 250 -5 401 -25 130 -98 314
-143 362 -68 73 -182 131 -268 137 -48 3 -52 6 -175 104 -31 25 -139 77 -204
99 -208 70 -426 66 -661 -13 -10 -3 -307 287 -880 862 -476 477 -857 864 -847
860 14 -4 872 -219 1010 -252 9 -2 25 -6 35 -8 9 -2 128 -32 264 -66 135 -33
256 -63 267 -65 12 -3 29 -7 39 -9 586 -147 911 -228 924 -231 31 -7 512 -125
548 -135 27 -8 223 -57 295 -74 6 -2 21 -6 35 -9 106 -27 394 -97 412 -101 13
-3 214 -53 448 -111 234 -59 432 -108 440 -110 8 -2 281 -69 605 -150 325 -81
597 -148 605 -150 8 -2 53 -13 100 -25 47 -12 92 -23 100 -25 8 -2 163 -40
345 -85 181 -45 336 -83 345 -85 8 -2 317 -79 685 -170 369 -92 677 -168 685
-170 8 -2 163 -40 344 -85 182 -45 335 -83 340 -84 6 -2 29 -8 51 -14 22 -6
51 -13 65 -16 30 -5 739 -181 794 -197 22 -6 46 -12 55 -14 16 -3 1101 -272
1131 -281 8 -2 30 -7 48 -11 30 -7 35 -15 56 -74 13 -37 38 -85 57 -108 33
-42 91 -91 106 -91 5 0 26 -37 46 -83 53 -118 128 -227 217 -317 69 -69 158
-140 175 -140 3 0 25 -9 49 -19 23 -11 83 -30 132 -42 49 -12 91 -24 93 -25 3
-3 5 -5427 2 -5469 -1 -15 -12254 -11 -12259 3 -11 35 -87 170 -121 215 -117
159 -286 273 -491 331 -214 60 -489 56 -673 -11 -221 -80 -414 -252 -532 -476
-87 -165 -120 -302 -119 -497 0 -244 47 -406 167 -585 56 -84 181 -203 260
-249 37 -21 67 -46 68 -55 0 -9 1 -1438 1 -3177 l1 -3160 41 -1 c23 -1 44 -2
47 -2 4 -1 10 -12 13 -26 l6 -24 299 1 299 1 0 41 c0 92 -22 77 240 162 130
42 269 86 307 99 39 13 212 69 385 125 173 56 461 149 640 207 179 57 478 154
665 215 326 105 594 192 1415 458 206 67 422 137 480 155 58 19 184 59 280 91
96 31 210 68 254 81 l78 26 416 -416 415 -415 -15 -39 c-65 -161 -83 -411 -39
-535 27 -77 74 -143 128 -182 35 -24 54 -49 83 -108 44 -89 105 -174 171 -240
59 -58 185 -152 247 -183 46 -23 211 -67 302 -81 79 -12 272 -11 355 2 122 18
139 22 216 50 205 74 371 217 464 400 22 44 41 81 42 83 4 6 5021 3 5031 -3 6
-3 22 -29 37 -58 80 -156 231 -301 389 -373 61 -29 235 -79 346 -101 50 -9
233 -12 293 -3 106 14 140 20 161 28 11 5 26 9 31 10 55 7 195 70 283 128 108
72 265 253 303 351 5 14 17 22 31 22 13 0 565 1 1228 2 1302 1 1261 -1 1358
54 31 18 652 631 1838 1817 l1791 1789 0 1900 0 1900 69 69 69 70 -50 -17
c-27 -9 -58 -17 -69 -17 -18 -2 -19 66 -19 2822 l0 2823 81 38 c233 110 386
280 466 520 70 211 70 508 -1 720 -81 245 -256 435 -490 532 -39 16 -53 27
-54 42 0 12 -1 620 -1 1352 l-1 1332 -1796 1795 c-1917 1915 -1826 1829 -1948
1855 -233 51 -467 -153 -478 -416 -5 -133 39 -247 127 -326 50 -46 215 -200
331 -309 27 -26 48 -49 46 -51 -2 -2 -110 -38 -239 -80 -129 -43 -462 -152
-740 -244 -278 -91 -507 -167 -510 -167 -3 -1 -104 -34 -225 -74 -121 -40
-488 -160 -815 -267 -327 -108 -602 -198 -610 -201 -8 -3 -19 -7 -25 -9 -5 -1
-86 -28 -180 -59 -157 -51 -893 -294 -1520 -500 -143 -47 -395 -130 -560 -184
-1164 -383 -1407 -462 -1413 -456 -121 122 -1130 1119 -1308 1291 -271 263
-319 310 -742 723 -156 152 -328 319 -383 371 l-98 95 29 93 c16 51 31 107 34
125 17 98 20 142 19 237 -2 144 -30 223 -113 315 -15 17 -38 57 -50 90 -61
154 -161 286 -290 382 -53 40 -171 103 -217 117 -17 6 -23 15 -24 39 0 18 -1
1266 -2 2774 -2 2737 -2 2743 18 2744 26 1 12355 1 12377 0 11 -1 29 -24 49
-63 74 -149 201 -300 331 -396 43 -31 64 -41 94 -41 23 1 67 -12 106 -30 36
-17 99 -38 140 -47 78 -18 253 -24 348 -12 189 25 377 119 519 260 158 155
260 340 305 551 7 30 1 29 166 29 88 -1 88 0 -5 28 -16 5 -57 14 -90 20 l-60
12 0 91 c-3 429 -182 743 -514 903 -60 29 -81 44 -82 59 0 11 -1 1132 -1 2490
l-1 2470 90 50 c187 103 298 213 391 385 75 139 119 329 118 507 l-1 82 90 22
c131 31 134 38 17 37 -57 0 -105 2 -107 4 -4 3 -10 34 -21 97 -3 19 -10 45
-15 58 -8 22 -1 27 159 108 92 46 165 84 162 84 -6 1 -312 -75 -341 -84 -11
-4 -21 7 -35 37 -57 129 -199 294 -322 377 -165 111 -334 162 -542 164 -159 2
-228 -5 -330 -34 -267 -74 -468 -246 -576 -493 -24 -56 -32 -66 -54 -67 -14 0
-3461 -1 -7660 -1 -6363 -1 -7635 1 -7639 13 -2 7 -23 51 -47 98 -120 239
-338 407 -597 461 -29 5 -63 13 -77 15 -31 7 -275 13 -315 8z m13920 -1403
c18 -2 -5 -9 -70 -24 -11 -2 -110 -27 -220 -55 -240 -61 -684 -172 -705 -176
-8 -2 -152 -38 -320 -80 -168 -42 -312 -78 -320 -80 -8 -2 -62 -15 -120 -30
-58 -14 -113 -28 -124 -30 -10 -3 -64 -16 -120 -31 -55 -14 -108 -27 -116 -29
-11 -3 -291 -72 -400 -100 -226 -56 -390 -97 -409 -101 -12 -3 -174 -43 -360
-89 -600 -151 -904 -226 -986 -246 -44 -10 -125 -30 -180 -44 -55 -14 -107
-28 -115 -30 -8 -2 -280 -69 -605 -150 -324 -81 -600 -149 -612 -151 -12 -2
-34 -9 -48 -14 -14 -5 -25 -7 -25 -5 0 2 -11 0 -25 -5 -14 -5 -36 -12 -48 -14
-12 -2 -240 -59 -507 -126 -267 -67 -492 -123 -500 -125 -8 -2 -53 -13 -100
-25 -81 -21 -99 -25 -145 -35 -11 -3 -155 -39 -320 -81 -165 -41 -307 -77
-315 -79 -8 -2 -136 -33 -285 -70 -148 -37 -277 -69 -285 -71 -8 -2 -123 -30
-255 -63 -132 -33 -550 -137 -929 -231 l-689 -172 -1278 1278 c-703 703 -1274
1281 -1270 1284 8 4 12749 4 12806 0z m2766 -383 c26 -18 72 -50 103 -71 31
-21 56 -44 56 -50 1 -6 1 -1140 1 -2521 1 -1794 -2 -2510 -10 -2513 -6 -2 -44
-25 -83 -51 -74 -48 -160 -127 -233 -213 l-40 -46 -150 38 c-166 42 -631 160
-655 165 -8 2 -166 42 -350 89 -326 82 -1530 385 -1560 391 -8 2 -141 36 -295
75 -154 39 -287 73 -295 75 -8 2 -125 31 -260 65 -135 34 -252 63 -260 65 -8
2 -89 22 -180 45 -91 23 -172 43 -180 45 -8 2 -168 42 -355 90 -187 47 -347
88 -355 90 -8 2 -44 11 -80 20 -36 9 -72 18 -80 20 -8 2 -161 40 -340 85 -179
45 -332 83 -340 85 -8 2 -78 20 -155 40 -77 20 -150 38 -162 40 -11 1 -30 6
-41 9 -11 4 -29 9 -39 11 -10 2 -46 11 -80 20 -35 9 -71 18 -80 20 -10 1 -38
8 -63 15 -25 7 -52 13 -60 15 -8 2 -27 8 -42 14 -16 6 -28 9 -28 6 0 -2 -15 1
-32 6 -18 6 -40 12 -48 14 -31 7 -106 26 -120 30 -8 2 -44 11 -80 19 -36 9
-150 38 -255 65 l-190 48 3680 1841 c2024 1012 3682 1841 3685 1841 3 0 26
-14 51 -32z m-14964 -1379 c684 -684 1243 -1246 1243 -1250 0 -5 -8 -8 -17 -9
-10 0 -2 -5 17 -11 19 -5 39 -13 43 -17 6 -6 -1133 -1728 -1324 -2003 -4 -6
-3939 1950 -3976 1976 -1 1 -4 42 -7 91 -5 91 -31 210 -61 280 l-16 39 1069
1069 1069 1069 63 -21 c187 -65 423 -62 595 7 28 11 52 20 55 21 3 1 564 -558
1247 -1241z m12052 898 c-4 -4 -642 -326 -2059 -1038 -1605 -808 -2663 -1340
-3139 -1579 -260 -132 -483 -239 -493 -239 -11 0 -48 7 -82 16 -33 9 -68 17
-76 19 -23 5 -1071 264 -1110 274 -19 5 -55 15 -79 21 -24 7 -54 14 -65 16
-44 9 -68 15 -346 84 -309 77 -846 210 -870 215 -8 2 -64 16 -124 31 l-109 27
69 18 c66 18 84 23 129 32 12 3 77 19 145 36 69 17 134 33 145 36 11 2 128 32
260 66 132 33 247 62 255 65 8 2 44 11 80 19 86 22 81 20 191 49 52 14 106 27
120 30 13 3 177 44 364 91 187 48 347 88 355 90 8 2 321 81 695 175 374 95
687 173 695 175 37 8 468 117 495 125 32 10 186 49 214 55 9 2 178 44 376 95
198 50 367 93 375 95 8 2 188 47 400 100 212 53 392 98 400 100 8 2 44 11 80
20 36 9 72 18 80 20 22 5 1005 253 1370 346 173 45 326 83 340 85 14 3 34 8
45 11 11 4 26 8 33 9 7 1 58 14 114 29 56 15 109 28 117 30 9 2 45 11 81 20
36 9 72 18 80 20 8 2 62 15 120 30 58 15 112 28 120 30 8 2 33 8 55 14 22 6
45 11 50 13 6 1 28 7 50 14 42 13 61 17 54 10z m-9939 -2645 c118 -30 403
-103 420 -107 8 -2 78 -20 155 -39 77 -20 147 -38 155 -40 8 -2 143 -36 300
-75 157 -40 290 -73 295 -75 6 -1 28 -7 50 -13 22 -6 51 -13 65 -16 14 -3 70
-17 125 -31 55 -14 107 -27 115 -29 8 -2 44 -12 80 -21 36 -10 79 -19 95 -22
17 -3 37 -8 45 -13 8 -4 33 -11 55 -15 48 -10 45 -9 70 -18 11 -3 31 -8 45
-11 14 -3 196 -49 405 -102 209 -52 387 -97 395 -99 19 -4 252 -64 265 -69 5
-1 -756 -385 -1691 -853 l-1701 -851 -194 100 c-178 91 -374 192 -684 353 -66
34 -153 79 -193 99 -61 31 -71 39 -63 54 8 15 228 340 486 717 45 66 135 199
200 295 66 96 156 229 201 295 46 66 126 183 178 260 232 343 234 345 245 345
3 0 40 -9 81 -19z m-5490 -794 c209 -101 790 -385 1325 -647 127 -62 325 -159
440 -215 116 -56 309 -151 430 -210 498 -244 687 -335 694 -335 4 0 12 -5 18
-11 9 -9 -27 -69 -137 -233 -200 -295 -603 -895 -926 -1374 l-63 -92 -43 62
c-23 35 -78 117 -122 183 -44 66 -83 122 -88 123 -4 2 -8 8 -8 13 0 11 -42 72
-52 77 -5 2 -8 10 -8 18 0 8 -4 14 -10 14 -5 0 -10 4 -10 9 0 6 -19 38 -43 73
-40 58 -181 268 -1025 1528 -157 234 -404 602 -549 818 -145 215 -266 399
-269 407 -3 8 53 -15 133 -54 76 -38 217 -107 313 -154z m1286 -3873 c-5 -13
-259 -395 -597 -897 -96 -143 -183 -273 -194 -291 -29 -46 -219 -330 -225
-336 -6 -6 -438 -650 -460 -686 -8 -13 -163 -245 -345 -515 -181 -271 -414
-618 -517 -772 -188 -280 -188 -280 -189 -236 0 62 0 7456 0 7503 1 37 95
-102 1267 -1858 696 -1045 1263 -1905 1260 -1912z m9259 3380 c303 -75 561
-138 575 -140 14 -3 65 -16 115 -29 49 -13 101 -26 115 -29 14 -2 70 -16 125
-30 55 -15 109 -28 120 -30 11 -2 112 -27 225 -56 113 -28 212 -53 220 -55 8
-2 53 -13 100 -24 47 -12 94 -23 105 -26 11 -2 130 -31 265 -65 135 -33 299
-74 365 -90 66 -17 130 -32 143 -35 12 -3 30 -7 40 -9 14 -4 348 -87 447 -112
17 -4 35 -8 40 -9 6 -2 95 -24 200 -50 104 -26 196 -49 205 -51 8 -2 62 -15
120 -29 58 -15 112 -28 120 -30 8 -2 62 -15 120 -30 58 -14 112 -28 120 -30 8
-2 236 -58 505 -124 270 -67 513 -126 540 -132 28 -7 61 -15 75 -20 22 -6 20
-8 -15 -9 -39 -1 -8474 -1 -8565 0 -50 0 -101 -27 775 405 171 84 535 264 810
400 275 136 671 332 880 435 l380 187 90 -23 c50 -13 338 -85 640 -160z
m-6667 -1451 c119 -58 305 -148 412 -200 107 -52 214 -104 238 -115 31 -15 40
-23 30 -29 -8 -6 -2 -9 19 -9 19 0 74 -21 128 -47 l95 -48 0 -60 c1 -92 1
-5006 0 -5120 l0 -100 -63 94 c-34 51 -70 108 -81 125 -10 17 -22 33 -26 36
-4 3 -9 10 -11 15 -2 6 -98 151 -214 323 -115 172 -214 321 -220 330 -5 10
-59 91 -120 180 -60 90 -115 171 -120 180 -6 9 -60 91 -120 180 -61 90 -115
171 -120 180 -6 10 -24 37 -40 61 -17 24 -35 51 -40 60 -6 9 -132 197 -280
419 -149 222 -274 411 -280 420 -5 10 -77 118 -160 240 -82 123 -158 238 -169
255 -10 18 -22 34 -27 35 -5 2 -9 7 -9 12 0 4 -97 153 -216 330 -144 216 -213
328 -209 339 3 9 308 469 678 1024 555 833 674 1006 689 1001 10 -3 116 -53
236 -111z m-1900 -2918 c188 -279 597 -890 1250 -1865 190 -283 432 -643 537
-800 105 -157 287 -428 404 -603 l213 -318 -34 -57 c-91 -151 -137 -303 -143
-477 -3 -86 0 -132 19 -241 17 -93 105 -280 173 -364 123 -154 342 -328 434
-345 13 -3 60 -14 104 -24 128 -31 162 -35 305 -34 98 1 161 7 230 22 l95 21
1147 -1147 c631 -631 1144 -1150 1140 -1154 -4 -3 -287 -99 -628 -212 l-622
-207 -978 486 c-539 268 -1325 658 -1749 869 -1024 508 -1839 913 -3265 1622
-652 324 -1294 643 -1427 709 -141 69 -241 124 -239 130 3 7 170 261 372 565
202 305 476 718 609 919 133 201 412 622 620 935 208 314 508 766 666 1005
158 239 294 443 301 452 7 10 69 103 138 208 69 104 128 189 132 187 4 -1 92
-128 196 -282z m-2568 -5127 c889 -442 2375 -1181 3145 -1563 552 -274 1412
-701 2873 -1427 l303 -151 -43 -24 c-24 -14 -79 -44 -123 -68 -44 -23 -103
-55 -130 -71 -28 -15 -70 -39 -95 -52 -25 -13 -58 -31 -75 -41 -16 -10 -61
-35 -100 -56 -38 -21 -79 -43 -90 -50 -22 -14 -114 -64 -188 -103 l-48 -25
-132 33 c-73 18 -136 33 -142 35 -5 1 -28 7 -50 13 -22 6 -51 13 -65 16 -14 3
-77 18 -142 35 -64 17 -131 33 -149 36 -18 3 -37 9 -42 12 -6 3 -20 7 -31 9
-15 2 -1146 285 -1391 348 -47 12 -679 168 -689 170 -6 2 -29 8 -51 14 -22 6
-51 13 -65 16 -14 2 -65 15 -115 29 -49 13 -92 24 -95 25 -3 0 -23 5 -45 10
-22 6 -51 13 -65 16 -14 2 -67 16 -118 30 -51 13 -93 24 -95 24 -1 0 -20 5
-42 10 -22 6 -51 13 -65 16 -14 2 -133 32 -264 66 -132 33 -247 62 -255 64 -9
1 -34 8 -56 14 -22 6 -51 13 -65 16 -14 3 -77 18 -142 35 -64 17 -131 33 -149
36 -18 3 -37 9 -42 12 -6 3 -20 7 -31 9 -12 1 -264 64 -561 139 -297 74 -547
137 -555 139 -8 1 -33 8 -55 14 -22 6 -51 13 -65 16 -14 2 -59 13 -100 25 -41
11 -88 23 -104 25 -16 3 -33 9 -39 15 -5 5 -9 459 -9 1168 1 1371 0 1266 10
1261 4 -2 293 -146 642 -320z m17035 -537 c102 -102 185 -187 185 -190 0 -3
-958 -964 -2129 -2135 l-2129 -2129 -81 42 c-167 87 -383 118 -562 81 l-94
-19 -185 188 c-102 104 -363 370 -581 592 -218 222 -456 465 -529 539 -73 74
-313 319 -534 543 -220 225 -402 412 -404 417 -3 7 223 83 1173 395 72 24 407
134 745 245 1077 354 1371 451 1535 505 88 29 374 123 635 209 261 85 606 199
765 252 160 52 295 97 300 98 12 3 1009 331 1400 461 154 52 286 93 292 92 7
-1 96 -85 198 -186z m980 -1016 c127 -122 264 -255 305 -295 41 -40 181 -175
310 -300 129 -126 286 -277 348 -337 l113 -109 0 -1164 c0 -641 0 -1172 0
-1181 -1 -10 -25 -26 -63 -43 -171 -72 -307 -203 -392 -377 l-44 -91 -2471 -1
c-1359 -1 -2471 0 -2471 3 0 10 4124 4129 4130 4124 3 -3 109 -106 235 -229z
m-8200 -2066 l720 -721 -465 235 c-866 437 -1424 720 -1623 820 -108 55 -194
103 -191 106 6 6 811 278 829 280 6 1 334 -324 730 -720z m-1659 -464 c533
-267 956 -484 939 -481 -47 8 -449 107 -510 126 -16 5 -41 11 -55 14 -14 3
-70 17 -125 31 -122 32 -1094 276 -1115 280 -8 2 -61 15 -116 29 -56 15 -110
29 -120 31 -11 2 -64 16 -119 30 -55 15 -107 28 -115 30 -51 11 -224 56 -232
61 -10 7 50 42 407 239 77 42 144 81 150 86 5 5 17 9 26 9 9 0 452 -218 985
-485z m5488 -2206 c66 -17 129 -33 139 -35 9 -2 25 -6 35 -8 9 -2 44 -11 77
-20 32 -8 60 -14 62 -13 1 2 -45 27 -102 55 -58 29 -105 53 -105 55 0 2 4755
0 4785 -2 10 -1 -5475 -5491 -5485 -5491 -4 0 -4 4693 -1 5011 1 42 4 49 39
71 76 51 180 162 258 276 1 2 13 -2 26 -9 23 -12 23 -12 5 9 -18 19 -18 22 10
76 15 30 35 56 43 58 34 7 99 -3 214 -33z m5448 -3749 c0 -1310 -3 -2385 -7
-2388 -9 -9 -2899 -972 -2903 -967 -2 2 77 162 176 357 99 194 271 533 382
753 112 220 280 553 375 740 330 652 549 1083 735 1450 190 375 435 859 799
1575 110 217 253 501 318 631 65 130 119 235 121 233 2 -1 4 -1074 4 -2384z
m-1059 2073 c-7 -18 -122 -248 -873 -1738 -213 -423 -582 -1157 -820 -1630
-1054 -2094 -1214 -2410 -1224 -2418 -6 -4 -51 -20 -101 -36 -49 -17 -466
-156 -925 -311 -459 -155 -1060 -357 -1335 -449 -275 -93 -691 -233 -925 -311
-994 -334 -1101 -370 -1107 -370 -4 0 207 212 468 471 261 259 826 821 1256
1250 451 448 792 781 805 783 13 3 86 19 163 36 77 18 151 34 165 36 14 3 61
13 105 24 44 10 125 28 180 41 55 12 107 25 115 30 8 4 -113 8 -270 8 -157 0
-288 0 -292 1 -4 0 23 30 60 66 77 76 2469 2456 3717 3697 462 460 841 837
842 837 1 0 -1 -8 -4 -17z m-9067 -5146 c3 -2 -12 -8 -33 -12 -21 -5 -42 -9
-48 -10 -5 -2 -73 -17 -150 -34 -77 -17 -221 -49 -320 -72 -99 -22 -191 -43
-205 -45 -14 -3 -61 -14 -105 -24 -73 -17 -148 -34 -200 -45 -22 -4 -89 -19
-270 -60 -66 -15 -187 -42 -270 -60 -82 -19 -242 -55 -355 -80 -113 -26 -216
-49 -230 -51 -14 -3 -54 -12 -90 -20 -125 -29 -465 -106 -490 -110 -14 -3 -83
-19 -155 -35 -71 -17 -139 -32 -150 -34 -28 -5 -136 -29 -295 -65 -74 -17
-146 -34 -160 -36 -14 -3 -81 -18 -150 -34 -69 -16 -143 -32 -165 -36 -22 -3
-43 -8 -47 -10 -4 -2 -26 -8 -50 -13 -53 -11 -202 -44 -498 -111 -124 -29
-236 -54 -250 -56 -14 -3 -54 -12 -90 -20 -36 -9 -72 -17 -80 -19 -96 -21
-930 -208 -945 -211 -11 -3 -31 -7 -45 -10 -14 -3 -74 -16 -135 -30 -60 -14
-121 -28 -135 -30 -14 -3 -41 -9 -60 -14 -19 -5 -48 -12 -65 -15 -16 -2 -79
-16 -140 -30 -60 -14 -182 -41 -270 -61 -88 -19 -207 -46 -265 -59 -105 -25
-266 -61 -413 -92 l-78 -17 -810 810 c-773 773 -810 811 -799 835 l11 24 4500
-2 c2475 0 4503 -3 4505 -6z m1234 -1492 l-1185 -1185 -165 -55 c-91 -30 -397
-132 -680 -228 -283 -95 -720 -242 -970 -327 -540 -181 -1645 -553 -2025 -682
-148 -50 -430 -144 -625 -210 l-355 -118 -957 957 c-527 527 -954 961 -950
964 4 4 52 17 107 29 55 12 107 23 115 25 53 13 249 57 268 61 23 5 233 52
347 79 33 8 182 41 330 75 149 34 326 74 395 90 102 24 357 81 420 95 8 2 76
17 151 34 75 18 145 33 155 36 11 2 79 17 153 34 73 17 143 33 155 35 11 3 30
7 41 10 163 37 254 58 272 62 12 2 111 25 220 50 206 48 225 52 258 59 38 8
510 115 595 135 261 61 610 140 639 145 19 3 37 8 41 10 4 2 22 7 41 10 19 3
61 12 94 20 186 44 237 56 305 70 41 9 82 18 90 20 27 7 374 86 415 95 22 5
81 18 130 29 50 12 101 24 115 27 14 3 41 9 60 14 19 5 46 11 60 14 34 6 124
26 333 75 98 22 188 43 200 45 12 3 103 23 202 46 99 23 187 43 195 45 52 11
345 78 395 90 33 8 71 16 85 19 14 2 66 14 115 26 50 12 101 24 114 26 12 3
53 12 90 20 73 17 85 20 151 34 25 5 83 19 130 30 47 11 96 23 110 25 14 3 36
8 50 11 14 3 32 7 41 9 8 2 44 10 80 19 35 9 107 25 159 37 52 11 102 22 110
24 8 2 96 22 195 45 99 23 191 44 205 46 14 3 48 11 75 18 28 8 59 15 70 15
13 1 -405 -424 -1165 -1184z m7800 952 c0 -1 -873 -875 -1940 -1942 l-1940
-1940 116 235 c376 758 660 1333 835 1690 110 223 207 418 215 433 21 38 17
29 209 421 l170 346 310 101 c171 55 342 111 380 124 39 13 205 67 370 120
165 53 426 138 580 188 154 50 285 92 290 93 8 2 394 129 403 133 1 1 2 0 2
-2z m-17350 -1358 c0 -4 -37 -14 -82 -23 -86 -16 -152 -30 -348 -71 -312 -66
-748 -157 -770 -161 -14 -3 -42 -9 -62 -14 -32 -7 -38 -5 -39 9 0 23 0 1388 0
1486 l1 80 650 -650 c358 -357 650 -653 650 -656z m18441 329 c0 -529 0 -1035
0 -1124 l-1 -161 -166 -169 c-92 -93 -387 -393 -658 -668 -270 -274 -570 -578
-666 -676 -96 -98 -394 -400 -662 -671 -267 -272 -610 -620 -761 -773 l-274
-279 -1112 0 c-719 0 -1115 3 -1122 10 -10 10 -5 16 1426 1458 495 499 1037
1046 1205 1215 168 169 708 714 1202 1211 493 497 1051 1060 1239 1251 189
191 345 345 347 343 2 -1 3 -437 3 -967z m-4481 -134 c0 -3 -120 -243 -266
-533 -147 -289 -363 -717 -482 -951 -118 -234 -317 -627 -442 -875 -125 -247
-337 -666 -470 -930 -133 -264 -245 -483 -249 -487 -3 -4 -38 -10 -76 -13
-118 -10 -253 -40 -325 -72 -132 -59 -213 -113 -289 -192 -44 -46 -121 -145
-121 -156 0 -3 -11 -22 -23 -43 -13 -20 -32 -58 -42 -84 -13 -36 -23 -48 -39
-49 -167 -7 -5009 0 -5016 7 -6 6 494 513 1323 1342 l1332 1332 185 60 c102
33 415 137 695 229 1651 547 2221 735 2225 736 5 1 696 229 1647 545 439 145
433 144 433 134z m-12271 -1878 l1014 -1014 -39 -12 c-22 -6 -140 -45 -264
-85 -124 -40 -414 -135 -645 -210 -231 -75 -431 -140 -445 -145 -14 -5 -214
-70 -445 -145 -478 -156 -1139 -371 -1745 -569 -228 -74 -416 -133 -418 -131
-5 5 -5 2895 0 2900 2 2 19 7 38 10 19 3 53 10 75 15 22 5 55 12 74 15 19 3
37 7 40 9 3 2 22 7 41 10 19 3 117 23 217 45 99 22 194 43 210 45 15 3 114 24
218 46 105 23 201 43 215 46 14 3 86 18 160 34 74 16 223 48 330 71 215 45
355 76 355 78 0 1 456 -455 1014 -1013z m4602 -1170 c-603 -603 -788 -783
-800 -777 -55 28 -306 46 -422 29 -59 -8 -161 -35 -211 -55 l-40 -16 -314 314
c-172 172 -310 316 -306 320 4 4 221 79 482 167 609 204 1126 378 1820 613
305 103 559 188 565 188 5 1 -343 -352 -774 -783z"/>
</g>
</svg>
